<svg width="85" height="85" viewBox="0 0 85 85" fill="none" xmlns="http://www.w3.org/2000/svg">
<path d="M40.7582 26.4985C26.4259 26.4985 14.7657 38.1592 14.7657 52.4909C14.7657 66.8226 26.4265 78.4834 40.7582 78.4834C55.0898 78.4834 66.7506 66.8226 66.7506 52.4909C66.7506 38.1592 55.0904 26.4985 40.7582 26.4985ZM42.3065 53.4548C42.3065 54.312 41.6115 55.007 40.7543 55.007C39.8971 55.007 39.2021 54.312 39.2021 53.4548V34.7438C39.2021 33.8867 39.8971 33.1917 40.7543 33.1917C41.6115 33.1917 42.3065 33.8867 42.3065 34.7438V53.4548Z" fill="white"/>
<path d="M45.1799 0H35.5642C34.2805 0 33.1874 0.918698 33.1874 2.20255V3.88046H47.5451V2.20255C47.5451 0.918698 46.4638 0 45.1799 0Z" fill="white"/>
<path d="M39.2021 6.98482V16.9132C39.7842 16.891 40.2328 16.8775 40.7522 16.8775C41.0123 16.8775 41.3364 16.8817 41.5304 16.8874V6.98482H39.2021Z" fill="white"/>
<path d="M76.4779 23.7379C76.283 23.5196 76.0061 23.3918 75.7133 23.3852C75.4207 23.3776 75.138 23.4903 74.931 23.6972L68.4739 30.1544C68.9444 30.7373 69.3971 31.3345 69.8321 31.9462L76.4465 25.1985C76.84 24.7959 76.8538 24.157 76.4779 23.7379Z" fill="white"/>
<path d="M40.7582 19.9818C22.8326 19.9818 8.24907 34.5653 8.24907 52.4909C8.24907 70.4165 22.8326 85 40.7582 85C58.6837 85 73.2671 70.4163 73.2671 52.4909C73.2671 34.5655 58.6835 19.9818 40.7582 19.9818ZM40.7582 81.5877C24.714 81.5877 11.6613 68.5348 11.6613 52.4909C11.6613 36.447 24.714 23.3941 40.7582 23.3941C56.8023 23.3941 69.855 36.4468 69.855 52.4909C69.855 68.535 56.8021 81.5877 40.7582 81.5877Z" fill="white"/>
</svg>
